<?xml version="1.0" encoding="utf-8"?>
<!-- Generator: Adobe Illustrator 22.0.0, SVG Export Plug-In . SVG Version: 6.00 Build 0)  -->
<svg version="1.1"
	 id="图层_1" xmlns:cc="http://creativecommons.org/ns#" xmlns:dc="http://purl.org/dc/elements/1.1/" xmlns:rdf="http://www.w3.org/1999/02/22-rdf-syntax-ns#"
	 xmlns="http://www.w3.org/2000/svg" xmlns:xlink="http://www.w3.org/1999/xlink" x="0px" y="0px" viewBox="0 0 131.8 76.2"
	 style="enable-background:new 0 0 131.8 76.2;" xml:space="preserve">
<style type="text/css">
	.st0{font-family:'AdobeSongStd-Light-GBpc-EUC-H';}
	.st1{font-size:12px;}
</style>
<g>
	<path d="M29.9,35.6c0.9-0.2,1.5-0.4,1.9-0.3c0.4,0,0.7,0.3,0.8,0.9c0.1,0.6-0.1,1-0.6,1.4c-0.5,0.4-1,0.6-1.7,0.8s-1.1,0.3-1.3,0.5
		c-0.2,0.2-0.3,0.4-0.3,0.7c0,0.4,0,0.9,0,1.4s0,1,0,1.4c0,0.5,0,0.9,0,1.2c0,0.4,0,0.6,0,0.8c0.1,1.2,0.2,2.2,0.2,3
		s-0.1,1.6-0.3,2.2c-0.2,0.6-0.4,1.2-0.8,1.6c-0.4,0.5-0.9,0.9-1.5,1.2c-0.6,0.4-1.5,0.7-2.5,0.8c-1.1,0.1-2.1,0.1-3.2-0.1
		c-1.1-0.2-2.1-0.5-3.1-1s-1.7-1.1-2.2-1.8s-0.6-1.1-0.5-1.4c0.1-0.3,0.4-0.3,0.8-0.2c0.6,0.3,1.3,0.5,2.1,0.5
		c0.8,0.1,1.6,0,2.5-0.1c0.7-0.1,1.2-0.2,1.6-0.4c0.4-0.1,0.8-0.4,1-0.7c0.3-0.3,0.5-0.7,0.6-1.2c0.2-0.5,0.3-1.2,0.4-2.1
		c0-0.1,0.1-0.4,0.1-0.7s0-0.6,0-1c0-0.3,0-0.7,0-1.1c0-0.4,0-0.7,0.1-1c0-0.4,0-0.7-0.1-0.8s-0.2-0.1-0.4,0c-0.5,0.1-1,0.3-1.4,0.4
		c-0.5,0.1-1,0.3-1.6,0.5c-0.9,0.3-1.8,0.3-2.4,0c-0.7-0.3-1-0.8-0.8-1.6c0.1-0.6,0.3-1.1,0.7-1.5c0.4-0.4,1-0.6,1.9-0.8
		c0.6-0.1,1.2-0.2,1.7-0.3c0.6-0.1,1.1-0.2,1.7-0.3c0.3-0.1,0.6-0.2,0.6-0.3c0.1-0.1,0.1-0.3,0.1-0.7c0-0.3,0-0.6,0-0.9
		c0-0.3,0-0.7-0.1-1.1c0-0.5-0.1-0.7-0.2-0.9c-0.1-0.1-0.2-0.2-0.4-0.1c-0.7,0.1-1.3,0.1-1.8,0.2c-0.5,0.1-0.9,0.2-1.2,0.3
		c-0.9,0.5-1.7,0.6-2.2,0.3c-0.5-0.2-0.7-0.5-0.7-1s0.2-1,0.6-1.5c1-1.4,1.9-1.9,2.8-1.6c0.2,0.1,0.6,0.2,1.1,0.2s1,0,1.5-0.1
		c0.2,0,0.4-0.3,0.4-0.7c-0.1-0.6-0.1-1.1-0.2-1.6c0-0.5-0.1-0.8-0.2-1.1c-0.3-1.7-0.3-2.8,0.1-3.5c0.4-0.6,1.2-0.9,2.5-0.7
		c1.3,0.2,2.2,0.7,2.6,1.5s0.5,1.6,0.4,2.6c-0.1,0.2-0.1,0.6-0.1,1.1s-0.1,1.1-0.1,1.7c-0.1,0.5,0.1,0.7,0.6,0.7c0.3,0,0.6,0,0.9,0
		s0.6,0.1,1.1,0.1c0.3,0.1,0.6,0.2,0.8,0.4c0.2,0.2,0.3,0.5,0.2,1c0,0.5-0.2,0.8-0.5,1.1s-0.7,0.4-1.1,0.4c-0.2,0-0.5-0.1-0.7-0.1
		s-0.5,0-0.8,0c-0.5,0-0.7,0.2-0.7,0.7c0,0.3,0,0.5,0,0.8c0,0.2,0,0.5-0.1,0.8c0,0.4,0,0.7,0.2,0.8C29.1,35.8,29.4,35.8,29.9,35.6z
		 M64.6,51c-0.4,0.5-0.9,1-1.6,1.4c-0.7,0.4-1.4,0.7-2.1,0.9c-0.6,0.1-1.1,0-1.8-0.4s-1.1-1-1.4-1.6c-0.3-0.8-0.7-1.5-1.1-2.2
		c-0.4-0.7-0.9-1.4-1.4-2.1c-0.3-0.4-0.6-0.4-0.8,0.1c-0.5,1.1-1.1,2.1-1.8,2.8s-1.4,1.2-2.2,1.4c-0.8,0.3-1.5,0.3-2.3,0.1
		s-1.5-0.6-2.1-1.2c-0.4-0.3-0.6-0.3-0.6,0.2c0,0.9-0.2,1.6-0.5,1.9c-0.3,0.3-0.8,0.6-1.5,0.9c-0.9,0.3-1.4,0.3-1.7,0.1
		s-0.4-0.8-0.3-1.8c0-0.6,0.1-1.2,0.1-1.8s0-1.2,0-1.8c0-0.5-0.3-0.7-0.8-0.5c-1.5,0.5-2.9,1.1-4.4,1.6s-2.7,1.1-3.8,1.5
		C32,51,31.4,51.1,30.9,51c-0.4-0.1-0.8-0.6-1.2-1.3c-0.3-0.7-0.4-1.3-0.1-1.9c0.3-0.6,0.9-0.9,1.8-1.1c0.3-0.1,0.7-0.1,1-0.2
		c0.3-0.1,0.6-0.1,1-0.2c0.3-0.1,0.5-0.2,0.7-0.3c0.1-0.1,0.2-0.4,0.2-0.7c0-0.9,0.1-1.8,0.1-2.6s0.1-1.6,0.1-2.4
		c0-0.8,0-1.6,0.1-2.4c0-0.8,0-1.6,0-2.5c0-0.5-0.2-0.7-0.7-0.5c-0.8,0.4-1.4,0.3-1.8-0.5c-0.2-0.5-0.3-0.9-0.2-1.3
		c0.1-0.4,0.4-0.8,0.7-1.1c0.6-0.6,1.2-0.9,1.6-1c0.5-0.1,0.9,0,1.2,0.1c0.4,0.2,1,0.3,1.7,0.3h0.4c0.3-0.1,0.4-0.3,0.4-0.6v-2.4
		c0.1-0.4-0.1-0.6-0.6-0.6c-0.4,0-0.8,0-1.1,0.1c-0.3,0-0.8,0.1-1.3,0.3c-0.9,0.2-1.5,0.2-1.8-0.1c-0.3-0.3-0.2-0.9,0.3-1.8
		c0.6-0.9,1.1-1.5,1.6-1.8s0.9-0.3,1.2-0.1c0.5,0.2,0.8,0.3,1,0.4s0.5,0.1,1,0.1c0.2,0,0.6,0,1,0c0.5,0,1,0,1.5,0.1
		c0.5,0,1,0,1.4,0.1c0.4,0,0.7,0,0.9,0c1.7-0.3,2.8,0.1,3.1,1c0.1,0.3,0.1,0.5,0.1,0.8c0,0.2-0.2,0.4-0.5,0.6s-0.7,0.3-1.2,0.4
		c-0.6,0.1-1.3,0.2-2.2,0.2c-0.2,0-0.4,0.1-0.4,0.2c-0.1,0.1-0.1,0.2-0.1,0.4v2.2c0,0.4,0.2,0.6,0.6,0.6c0.3,0,0.6,0,0.9,0
		s0.7,0,1-0.1c0.4,0,0.8,0,1.2,0s0.8,0,1.1,0.1c0.3,0,0.6,0.1,0.8,0.3c0.2,0.2,0.2,0.6,0.1,1.3c-0.1,0.3-0.2,0.5-0.3,0.7
		c-0.2,0.1-0.6,0.2-1.3,0.3c-0.4,0-0.6,0.2-0.6,0.7v2.1c0,0.7,0.2,0.7,0.6,0.3c1.2-1.3,2-2.8,2.5-4.5c0.5-1.8,0.6-3.9,0.5-6.4
		c-0.1-1.2,0.1-2,0.4-2.5c0.4-0.4,1.1-0.6,2.1-0.4c0.6,0.1,1,0.3,1.2,0.8c0.3,0.4,0.4,1.1,0.3,2.1c0,0.6-0.1,1.1-0.1,1.6
		c-0.1,0.5-0.1,1.1-0.2,1.6c-0.1,0.5,0.1,0.7,0.6,0.7c1.1,0,2-0.1,2.8-0.1s1.5,0,2,0c0.6,0,1.1,0,1.5,0s0.8,0,1.1,0
		c0.9,0,1.4,0.4,1.5,1.2c0.1,0.8-0.2,1.4-0.7,1.6C61.2,33,61,33,60.8,33.1C60.6,32.9,60.3,33,60,33c-0.3,0.1-0.7,0.1-1.2,0.1
		s-1,0.1-1.7,0.1c-0.5,0-0.8,0.2-0.7,0.7c0.1,1.6,0.1,3,0.1,4.3s-0.1,2.5-0.3,3.6c-0.1,0.6,0,1,0.4,1.3l1.7,1.4
		c0.5,0.4,1,0.8,1.5,1.1c0.6,0.4,1.1,0.7,1.7,1.1c0.6,0.3,1.1,0.6,1.7,0.9c0.5,0.3,1,0.5,1.4,0.8c0.6,0.3,0.9,0.6,0.9,1
		C65.4,49.8,65.1,50.3,64.6,51z M41.7,43.5c0-0.4-0.1-0.6-0.2-0.8c-0.1-0.1-0.3-0.2-0.6-0.2c-0.4,0-0.7-0.1-1.1-0.1
		c-0.3,0-0.7,0-1.1,0c-0.3,0-0.5,0.1-0.6,0.3C38,43,38,43.3,37.9,43.9c0,0.6,0,1,0.2,1.1c0.1,0.1,0.4,0.2,0.8,0.1
		c0.3-0.1,0.7-0.1,1-0.2c0.3-0.1,0.7-0.2,1.1-0.2c0.3-0.1,0.5-0.2,0.5-0.3C41.6,44.2,41.7,43.9,41.7,43.5z M41.7,39.6
		c0-0.5-0.1-0.8-0.3-0.9c-0.2-0.1-0.7-0.2-1.6-0.2c-0.8,0-1.2,0.1-1.5,0.2c-0.2,0.1-0.3,0.4-0.3,0.8c0,0.4,0.1,0.6,0.3,0.8
		c0.2,0.1,0.6,0.2,1.3,0.2c1,0,1.6-0.1,1.7-0.2C41.6,40.2,41.7,40,41.7,39.6z M41.7,35.4c0-0.6-0.1-1-0.3-1.2
		C41.3,34.1,40.8,34,40,34s-1.3,0.1-1.5,0.2c-0.2,0.1-0.3,0.5-0.3,1c0,0.6,0.1,1,0.3,1.1c0.2,0.2,0.7,0.2,1.5,0.2s1.3-0.1,1.5-0.2
		C41.6,36.2,41.7,35.9,41.7,35.4z M48.3,38.6c0.4-0.3,0.7-0.5,1-0.4s0.6,0.2,1,0.4c0.3,0.2,0.6,0.4,0.9,0.6c0.3,0.2,0.7,0.5,1.1,0.7
		c0.4,0.3,0.7,0.1,0.8-0.4c0.1-0.8,0.2-1.6,0.3-2.5s0.1-1.9,0.1-3c0-0.3-0.1-0.6-0.2-0.6c-0.1-0.1-0.4-0.1-0.7-0.1
		c-0.4,0-0.7,0.1-0.8,0.2c-0.2,0.1-0.3,0.3-0.4,0.5c-0.5,1.2-1.1,2.3-1.8,3.2c-0.8,0.9-1.8,1.7-3.2,2.4c-0.3,0.2-0.6,0.3-0.7,0.4
		c-0.1,0.1-0.2,0.3-0.2,0.6c0,1.1,0,2.3,0.1,3.6c0,1.3,0.1,2.2,0.1,2.9c0,0.4,0,0.7,0.1,0.8s0.1,0.2,0.2,0.2
		c1.3-0.3,2.5-0.7,3.5-1.4s1.8-1.6,2.4-2.8c0.2-0.3,0.2-0.5,0.2-0.7c-0.1-0.2-0.2-0.4-0.3-0.5c-0.7-0.7-1.2-1.2-1.7-1.5
		s-0.8-0.5-1.2-0.8C48.2,40.2,48,40,48,39.6C47.9,39.2,48,38.9,48.3,38.6z"/>
	<path d="M84.7,32.5c0,0.9,0,1.8,0,2.7s0,1.8,0,2.7c0.2-0.1,0.5-0.3,1-0.4c1.4-0.3,2.6-0.8,3.6-1.3s2-1.2,2.9-2.2
		c0.5-0.5,0.7-0.8,0.7-0.9c0-0.1-0.2-0.1-0.7,0c-0.2,0-0.4,0.1-0.5,0.1s-0.3,0-0.4,0.1c-0.8,0.1-1.3,0.2-1.7,0.3
		c-0.4,0.1-0.8,0.1-1.2,0.2c-0.3,0.1-0.7,0.1-0.9-0.1s-0.5-0.3-0.6-0.4c-0.1-0.2-0.1-0.4,0-0.6c0.1-0.2,0.3-0.5,0.7-0.7
		c0.6-0.4,1.1-0.6,1.4-0.7s0.9-0.1,1.6,0.1c0.2,0.1,0.5,0.1,0.9,0.1s1.1-0.1,2.3-0.2c0.4,0,0.6-0.1,0.8-0.2c0.1-0.1,0.3-0.3,0.5-0.7
		c0.2-0.3,0.2-0.5,0.1-0.6s-0.4-0.1-0.9-0.1s-0.9,0-1.2,0c-0.3,0-0.6,0-0.8,0.1c-0.6,0.1-1.1,0.1-1.5,0.2s-0.8,0.2-1.3,0.3
		c-0.8,0.1-1.3,0-1.6-0.4c-0.3-0.4-0.1-0.8,0.5-1.1c0.6-0.4,1.1-0.6,1.4-0.8c0.3-0.1,0.7-0.1,1.2-0.1c0.7,0.1,1.3,0.1,1.7,0.2
		c0.5,0,1.1,0,1.8,0c0.6,0,1-0.1,1.2-0.2s0.3-0.3,0.4-0.8c0.1-0.4,0.2-0.7,0.2-1.1c0-0.3,0.1-0.7,0.1-1c0-0.9,0.3-1.5,0.9-2
		c0.6-0.4,1.3-0.5,2.2-0.1c0.9,0.4,1.5,0.9,1.7,1.6s0.3,1.6,0.1,2.8c0,0.3,0,0.4,0.1,0.5s0.2,0.1,0.5,0.1c1.8,0,3.2,0,4.2,0
		s2,0,2.8,0.1c0.7,0,1.2,0.1,1.4,0.2c0.2,0.1,0.3,0.3,0.3,0.5c-0.1,0.3-0.2,0.5-0.4,0.6c-0.2,0.1-0.6,0.2-1.3,0.2
		c-1.1,0-2.3,0-3.6,0s-2.6,0-3.9,0.1c-0.3,0-0.6,0-0.7,0.1s-0.2,0.2-0.4,0.4c-0.2,0.3-0.4,0.6-0.3,0.7s0.2,0.1,0.6,0.1
		c1.7-0.1,3.2-0.1,4.6-0.1s2.9,0.1,4.3,0.3c0.9,0.1,1.4,0.2,1.6,0.3c0.2,0.2,0.3,0.4,0.2,0.8c0,0.2-0.2,0.4-0.4,0.6
		c-0.3,0.1-0.7,0.2-1.3,0.2c-1.2,0-2.7,0-4.4,0c-0.3,0-0.5,0-0.5,0.1s0.1,0.2,0.4,0.4c0.7,0.4,1.6,0.8,2.5,1.3s1.9,0.9,2.8,1.3
		c0.9,0.4,1.8,0.8,2.7,1.1c0.8,0.3,1.6,0.5,2.1,0.6c1,0.2,1.6,0.4,1.8,0.6s0.2,0.6,0,1.1c-0.2,0.6-0.7,1.1-1.2,1.7
		c-0.6,0.5-1.2,0.9-1.9,1.2c-0.7,0.3-1.4,0.4-1.9,0.3c-0.5-0.1-1.2-0.5-2.1-1.2c-0.5-0.4-1.1-0.9-1.8-1.4c-0.7-0.6-1.5-1.3-2.5-2.1
		c-0.2-0.2-0.4-0.2-0.4-0.2c-0.1,0.1-0.2,0.2-0.2,0.5c-0.2,0.7-0.4,1.3-0.4,1.9c-0.1,0.6-0.2,1.2-0.2,1.8c0,0.3,0,0.6,0.1,0.7
		c0.1,0.1,0.2,0.1,0.5,0.1c0.4,0,0.8-0.1,1.1-0.1c0.3,0,0.6,0,0.8,0c1.4-0.1,2.4,0,3,0.2s1,0.7,1.3,1.4c0.2,0.5,0.3,1.1,0.4,1.8
		s0,1.4-0.1,2.1c-0.1,0.7-0.3,1.4-0.6,2.2c-0.3,0.7-0.6,1.4-1.1,2s-1,1.1-1.7,1.5s-1.5,0.6-2.3,0.7c-0.8,0.1-1.6,0-2.4-0.2
		s-1.5-0.6-2.1-1.3c-0.6-0.6-0.8-1-0.7-1.4s0.4-0.5,1.1-0.3c1,0.3,1.9,0.4,2.8,0.2s1.5-0.6,1.8-1.1c0.9-1.7,1.3-3,1.1-3.7
		c-0.1-0.5-0.3-0.8-0.5-1c-0.3-0.2-0.7-0.3-1.2-0.3c-0.3,0-1-0.1-2.2-0.1c-1.1,0-2.4,0-3.6-0.1c-1,0-1.8,0-2.4,0s-1.2,0-1.6,0
		s-0.7,0-1,0.1c-0.2,0-0.4,0-0.5,0.1c-0.6,0.2-1.2,0.3-1.7,0.3s-0.9-0.2-1.2-0.6c-0.3-0.3-0.4-0.7-0.5-1.2s0-0.8,0.1-1.1
		c0.2-0.4,0.4-0.8,0.4-1.1c0.1-0.3,0.1-0.7,0.2-1.1c0.1-0.7,0.3-1.1,0.8-1.5c0.5-0.3,1.1-0.4,1.8-0.3c0.8,0.1,1.2,0.3,1.3,0.7
		c0.1,0.3,0.1,0.8-0.1,1.4s-0.2,1-0.1,1.2s0.4,0.4,1.1,0.4c0.5,0,1.1,0.1,1.6,0.1c0.6,0,1.1,0,1.7,0c0.3,0,0.6,0,0.6-0.1
		c0.1-0.1,0.2-0.3,0.3-0.8c0.1-0.3,0.1-0.6,0.2-0.9c0-0.3,0.1-0.6,0.1-0.9c0.1-0.7,0-1.1-0.2-1.4c-0.2-0.2-0.6-0.4-1.2-0.4
		c-0.7,0-1.4-0.1-2-0.1s-1.1,0-1.6,0s-1,0.1-1.4,0.1c-0.5,0.1-1,0.1-1.5,0.2c-0.3,0.1-0.6,0.1-0.8,0.2c-0.2,0.1-0.5,0.2-0.8,0.4
		s-0.7,0.3-1,0.5s-0.7,0.3-1,0.5c-1.6,0.7-2.8,0.9-3.6,0.5c-0.3-0.1-0.5-0.2-0.8-0.4c0.1,4,0.2,7.9,0.3,11.6c0,0.6-0.1,1-0.3,1.2
		c-0.2,0.2-0.7,0.5-1.5,0.8c-0.6,0.2-1,0.3-1.3,0.3s-0.6-0.1-0.8-0.3c-0.2-0.2-0.3-0.6-0.3-1.1s0-1.2,0-2.1L81,39.9
		c0-0.4-0.1-0.5-0.3-0.1c-0.5,1-0.9,1.8-1.4,2.2c-0.4,0.5-0.9,0.9-1.4,1.3c-0.7,0.5-1.3,0.6-1.9,0.3c-0.1-0.1-0.2-0.1-0.2-0.1
		s-0.1,0.1-0.1,0.3c-0.2,0.9-0.4,1.8-0.6,2.6c-0.2,0.9-0.5,1.6-0.9,2.4c-0.4,1-1,1.8-1.6,2.4c-0.7,0.6-1.4,1.1-2.1,1.3
		c-0.7,0.3-1.4,0.3-2.1,0.1s-1.2-0.6-1.6-1.2c-0.3-0.6-0.5-1-0.4-1.2s0.3-0.4,0.7-0.6c0.4-0.2,0.9-0.5,1.5-1.1s1.1-1.2,1.7-2
		s1-1.6,1.5-2.4c0.4-0.8,0.7-1.6,0.8-2.4c0.2-1.6,0.4-3,0.5-4.4c0.1-1.3,0.2-2.6,0.2-3.7c0-1.2,0-2.3-0.1-3.4S73,28,72.8,26.9
		c-0.3-2-0.1-3.2,0.9-3.6c0.5-0.2,1-0.3,1.4-0.2c0.5,0.1,0.8,0.4,1.1,0.9c0.1,0.2,0.2,0.3,0.4,0.3c0.4,0,0.9,0,1.5,0
		s1.3,0.1,2.2,0.2c0.3,0,0.5,0,0.7-0.1s0.4-0.2,0.8-0.5c0.3-0.3,0.7-0.4,1.2-0.4c0.4,0,0.9,0.1,1.3,0.4c0.6,0.4,1,0.9,1.1,1.5
		s0.1,1.6-0.2,2.9c-0.1,0.8-0.2,1.5-0.3,2.3C84.8,31.3,84.7,32,84.7,32.5z M80.4,33.1c0.4,0.2,0.6,0.4,0.5,0.8
		c0,0.4-0.2,0.6-0.7,0.7c-0.3,0.1-0.7,0.1-1.3,0.1c-0.6,0-1,0-1.3-0.1s-0.6-0.2-0.8-0.3c-0.2-0.1-0.3,0-0.3,0.2c0,1.1,0,2.1-0.1,3.1
		s-0.1,2-0.2,2.9c0,0.2,0,0.3,0.1,0.3s0.2,0,0.3-0.2c0.7-0.3,1.4-0.7,2-1.1c0.6-0.4,1.2-1,1.8-1.6c0.1-0.1,0.2-0.2,0.4-0.3
		c0.1-0.1,0.2-0.2,0.2-0.3s0-0.2,0-0.4l0.1-7.2c0-0.5,0-0.9-0.1-1.1c0-0.3-0.1-0.5-0.1-0.6c-0.1-0.1-0.1-0.2-0.2-0.3
		c-0.1-0.1-0.3-0.1-0.5-0.1c-0.5,0-1-0.1-1.6-0.1s-1.1,0-1.7,0c-0.3,0-0.5,0.2-0.5,0.5c0,0.5,0,1,0,1.5s0,1,0,1.6
		c0,0.2,0.1,0.3,0.2,0.2c0.3-0.4,0.7-0.4,1.1-0.1c0.3,0.3,0.7,0.7,1.2,1C79.5,32.6,79.9,32.8,80.4,33.1z M105.7,47.6
		c0,0.3-0.1,0.5-0.3,0.6c-0.2,0.2-0.6,0.3-1.2,0.5c-0.6,0.1-1.4,0.2-2.6,0.3s-2.5,0.1-4.1,0c-1,0-1.8,0-2.4,0s-1.2,0-1.7,0
		s-0.9,0-1.3,0s-0.9,0-1.4,0.1c-0.4,0-0.7,0.1-1,0.2c-0.3,0.1-0.6,0.2-1.1,0.4c-0.4,0.1-0.7,0.2-1,0.1c-0.3-0.1-0.5-0.2-0.7-0.4
		s-0.3-0.4-0.3-0.7s0.1-0.6,0.4-1c0.6-1,1.7-1.4,3.2-1.1c0.3,0.1,0.6,0.1,1.1,0.1s1.2-0.1,2.2-0.2c0.3-0.1,0.9-0.1,1.6,0
		c0.8,0.1,1.6,0.1,2.4,0.1c0.7,0,1.3,0,1.8,0s1,0,1.5,0s0.9,0,1.4,0.1c0.5,0,1,0,1.6,0.1c0.8,0.1,1.3,0.2,1.6,0.3
		S105.8,47.3,105.7,47.6z M94.8,26c0.3,0.2,0.4,0.5,0.4,0.6c0,0.2-0.3,0.3-0.8,0.5c-0.5,0.1-1.2,0.1-2-0.1s-1.6-0.5-2.4-1
		c-0.5-0.3-0.6-0.7-0.5-1.2s0.4-0.9,1-1.2c0.7-0.3,1.2-0.4,1.7-0.3c0.4,0.1,0.8,0.3,1.1,0.8c0.3,0.5,0.6,0.8,0.9,1.1
		C94.4,25.6,94.6,25.8,94.8,26z M101.7,34.4c-0.3-0.2-0.5-0.4-0.8-0.6c-0.2-0.2-0.5-0.5-0.8-0.7c-0.1-0.1-0.2-0.1-0.4-0.2
		c-0.2-0.1-0.4-0.1-0.9-0.1c-0.4,0-0.6,0-0.8,0.1c-0.2,0.1-0.3,0.2-0.5,0.3c-0.2,0.2-0.4,0.4-0.5,0.6c-0.2,0.2-0.4,0.4-0.5,0.6
		c-0.3,0.3-0.4,0.6-0.4,0.8c0.1,0.2,0.3,0.3,0.9,0.2c0.4-0.1,0.9-0.1,1.4,0s1,0.2,1.5,0.3c0.4,0.1,0.9,0.1,1.4-0.1
		c0.4-0.2,0.6-0.4,0.7-0.6C102,34.8,101.9,34.6,101.7,34.4z M108.3,25.9c-0.4,0.3-1.1,0.5-1.9,0.7c-0.9,0.2-1.7,0.3-2.4,0.3
		c-1.4,0-1.7-0.3-0.8-1c0.6-0.5,1-0.8,1.4-1.1c0.3-0.3,0.6-0.6,0.9-1c0.4-0.5,0.7-0.7,1-0.8c0.3-0.1,0.7,0.1,1.3,0.5
		c0.6,0.4,1,0.8,1,1.3S108.6,25.7,108.3,25.9z"/>
</g>
<text transform="matrix(1 0 0 1 25.509 14.5723)" class="st0 st1">滚滚长江东逝水</text>
</svg>
